<svg width="343" height="230" viewBox="0 0 343 230" fill="none" xmlns="http://www.w3.org/2000/svg">
<path d="M184.043 60.6387H341.892V229.432H184.043V60.6387Z" fill="#F4F4F4"/>
<path d="M341.892 230H184.043C183.892 230 183.748 229.94 183.641 229.833C183.534 229.727 183.474 229.583 183.474 229.432V60.639C183.474 60.4884 183.534 60.344 183.641 60.2376C183.748 60.1311 183.892 60.0713 184.043 60.0713H341.892C342.043 60.0713 342.188 60.1311 342.295 60.2376C342.401 60.344 342.461 60.4884 342.461 60.639V229.432C342.461 229.583 342.401 229.727 342.295 229.833C342.188 229.94 342.043 230 341.892 230ZM184.613 228.864H341.323V61.2066H184.613V228.864Z" fill="#32323B"/>
<path d="M184.043 60.6387H341.892V79.3266H184.043V60.6387Z" fill="#F4F4F4"/>
<path d="M341.892 79.8946H184.043C183.892 79.8946 183.748 79.8348 183.641 79.7283C183.534 79.6218 183.474 79.4774 183.474 79.3269V60.639C183.474 60.4884 183.534 60.344 183.641 60.2376C183.748 60.1311 183.892 60.0713 184.043 60.0713H341.892C342.043 60.0713 342.188 60.1311 342.295 60.2376C342.401 60.344 342.461 60.4884 342.461 60.639V79.3269C342.461 79.4774 342.401 79.6218 342.295 79.7283C342.188 79.8348 342.043 79.8946 341.892 79.8946ZM184.613 78.7592H341.323V61.2066H184.613V78.7592Z" fill="#32323B"/>
<path d="M192.481 72.0607C193.807 72.0607 194.883 70.9882 194.883 69.6651C194.883 68.3421 193.807 67.2695 192.481 67.2695C191.154 67.2695 190.078 68.3421 190.078 69.6651C190.078 70.9882 191.154 72.0607 192.481 72.0607Z" fill="#B7005C"/>
<path d="M201.111 72.0607C202.438 72.0607 203.514 70.9882 203.514 69.6651C203.514 68.3421 202.438 67.2695 201.111 67.2695C199.785 67.2695 198.709 68.3421 198.709 69.6651C198.709 70.9882 199.785 72.0607 201.111 72.0607Z" fill="#C6C6C6"/>
<path d="M209.742 72.0607C211.069 72.0607 212.145 70.9882 212.145 69.6651C212.145 68.3421 211.069 67.2695 209.742 67.2695C208.415 67.2695 207.34 68.3421 207.34 69.6651C207.34 70.9882 208.415 72.0607 209.742 72.0607Z" fill="#C6C6C6"/>
<path d="M253.01 152.864C253.01 152.864 217.815 157.871 213.09 152.864C208.365 147.858 197.536 119.292 197.536 119.292L185.011 129.601C185.011 129.601 194.416 183.076 210.369 182.792C226.321 182.509 262.051 169.497 262.051 169.497L253.01 152.864Z" fill="#F4F4F4"/>
<path d="M210.232 183.359C194.063 183.359 184.829 131.894 184.442 129.691C184.428 129.593 184.438 129.493 184.472 129.4C184.505 129.307 184.562 129.224 184.635 129.157L197.16 118.848C197.231 118.791 197.314 118.752 197.403 118.732C197.492 118.712 197.584 118.713 197.673 118.735C197.759 118.762 197.838 118.808 197.905 118.868C197.972 118.929 198.025 119.004 198.06 119.087C198.162 119.371 208.9 147.607 213.488 152.477C217.2 156.394 243.207 153.681 252.919 152.296C253.034 152.283 253.151 152.304 253.254 152.357C253.357 152.409 253.443 152.491 253.5 152.591L262.552 169.179C262.592 169.249 262.615 169.327 262.622 169.407C262.628 169.488 262.617 169.569 262.588 169.644C262.56 169.72 262.516 169.788 262.459 169.845C262.401 169.902 262.332 169.946 262.256 169.973C261.892 170.11 226.23 183.075 210.369 183.359H210.232ZM185.626 129.827C186.446 134.266 195.646 182.224 210.221 182.224H210.346C224.875 181.963 256.415 170.87 261.243 169.133L252.703 153.477C250.881 153.726 243.059 154.76 234.861 155.305C222.222 156.145 214.752 155.452 212.669 153.25C208.296 148.617 199.062 124.866 197.286 120.233L185.626 129.827Z" fill="#32323B"/>
<path d="M1.03076 0.556641H158.879V169.35H1.03076V0.556641Z" fill="#F4F4F4"/>
<path d="M158.936 169.928H1.03074C0.87975 169.928 0.734942 169.869 0.628174 169.762C0.521407 169.656 0.461426 169.511 0.461426 169.361V0.567677C0.461426 0.41712 0.521407 0.272728 0.628174 0.166268C0.734942 0.0598082 0.87975 0 1.03074 0H158.936C159.087 0 159.232 0.0598082 159.339 0.166268C159.446 0.272728 159.506 0.41712 159.506 0.567677V169.361C159.506 169.511 159.446 169.656 159.339 169.762C159.232 169.869 159.087 169.928 158.936 169.928ZM1.65699 168.793H158.31V1.13535H1.60006L1.65699 168.793Z" fill="#32323B"/>
<path d="M1.03076 0.556641H158.879V19.2446H1.03076V0.556641Z" fill="#F4F4F4"/>
<path d="M158.936 19.8233H1.03074C0.880663 19.8204 0.737544 19.7596 0.631402 19.6538C0.525259 19.548 0.464341 19.4053 0.461426 19.2556V0.567677C0.461426 0.41712 0.521407 0.272728 0.628174 0.166268C0.734942 0.0598082 0.87975 0 1.03074 0H158.936C159.087 0 159.232 0.0598082 159.339 0.166268C159.446 0.272728 159.506 0.41712 159.506 0.567677V19.2556C159.506 19.4062 159.446 19.5506 159.339 19.657C159.232 19.7635 159.087 19.8233 158.936 19.8233ZM1.65699 18.6879H158.31V1.13535H1.60006L1.65699 18.6879Z" fill="#32323B"/>
<path d="M9.46807 11.9777C10.7949 11.9777 11.8706 10.9052 11.8706 9.58212C11.8706 8.25907 10.7949 7.18652 9.46807 7.18652C8.1412 7.18652 7.06555 8.25907 7.06555 9.58212C7.06555 10.9052 8.1412 11.9777 9.46807 11.9777Z" fill="#B7005C"/>
<path d="M18.0989 11.9777C19.4257 11.9777 20.5014 10.9052 20.5014 9.58212C20.5014 8.25907 19.4257 7.18652 18.0989 7.18652C16.772 7.18652 15.6964 8.25907 15.6964 9.58212C15.6964 10.9052 16.772 11.9777 18.0989 11.9777Z" fill="#C6C6C6"/>
<path d="M26.7298 11.9777C28.0567 11.9777 29.1324 10.9052 29.1324 9.58212C29.1324 8.25907 28.0567 7.18652 26.7298 7.18652C25.403 7.18652 24.3273 8.25907 24.3273 9.58212C24.3273 10.9052 25.403 11.9777 26.7298 11.9777Z" fill="#C6C6C6"/>
<path d="M43.0691 150.071L39.3572 169.361H99.625L96.3116 159.563L43.0691 150.071Z" fill="#32323B"/>
<path d="M99.6251 169.929H39.38C39.2972 169.929 39.2154 169.911 39.1406 169.876C39.0657 169.84 38.9997 169.789 38.9474 169.725C38.8921 169.662 38.852 169.587 38.8303 169.507C38.8086 169.426 38.8058 169.341 38.8221 169.259L42.534 149.958C42.5617 149.811 42.6467 149.681 42.7704 149.595C42.8941 149.51 43.0465 149.478 43.1944 149.504L96.4255 158.996C96.5261 159.014 96.62 159.058 96.698 159.124C96.776 159.189 96.8352 159.274 96.8696 159.37L100.183 169.168C100.212 169.254 100.22 169.344 100.207 169.433C100.194 169.522 100.16 169.606 100.107 169.679C100.055 169.753 99.9863 169.812 99.9064 169.854C99.8265 169.895 99.7379 169.917 99.6479 169.918L99.6251 169.929ZM40.0518 168.794H98.8281L95.879 160.063L43.5019 150.73L40.0518 168.794Z" fill="#32323B"/>
<path d="M119.87 95.4717L154.052 136.537L138.999 142.68L102.38 103.828L119.87 95.4717Z" fill="#F4F4F4"/>
<path d="M138.999 143.248C138.922 143.248 138.845 143.232 138.775 143.201C138.704 143.17 138.641 143.124 138.589 143.066L102.005 104.214C101.942 104.151 101.896 104.074 101.87 103.989C101.844 103.903 101.84 103.813 101.857 103.726C101.873 103.637 101.91 103.554 101.966 103.483C102.021 103.411 102.093 103.355 102.176 103.317L119.665 94.9612C119.779 94.9066 119.908 94.8914 120.032 94.9181C120.156 94.9449 120.267 95.012 120.348 95.1088L154.507 136.175C154.565 136.243 154.605 136.324 154.625 136.41C154.645 136.497 154.644 136.588 154.621 136.674C154.598 136.76 154.555 136.84 154.496 136.907C154.436 136.974 154.362 137.026 154.28 137.06L139.238 143.202C139.164 143.238 139.081 143.254 138.999 143.248ZM103.337 104.01L139.147 142.01L153.118 136.334L119.722 96.2101L103.337 104.01Z" fill="#32323B"/>
<path d="M109.599 74.0703L126.918 96.573L103.314 109.482L109.599 74.0703Z" fill="#32323B"/>
<path d="M109.6 74.1274C108.153 71.8566 75.3153 61.5476 64.5438 69.1091C53.7723 76.6705 42.3518 135.141 39.38 153.239L105.011 170.065C105.011 170.065 117.559 86.9001 109.6 74.1274Z" fill="#32323B"/>
<path d="M108.233 155.396H108.165C108.091 155.383 108.02 155.356 107.956 155.316C107.892 155.277 107.837 155.225 107.794 155.163C107.75 155.102 107.72 155.033 107.703 154.96C107.687 154.887 107.685 154.811 107.698 154.737C107.755 154.226 113.573 103.646 111.695 90.9756C111.683 90.901 111.687 90.825 111.705 90.7519C111.724 90.6787 111.756 90.6099 111.801 90.5492C111.846 90.4886 111.902 90.4374 111.967 90.3986C112.032 90.3597 112.104 90.3339 112.179 90.3228C112.253 90.3116 112.33 90.3152 112.403 90.3334C112.476 90.3516 112.545 90.384 112.606 90.4288C112.667 90.4736 112.718 90.5299 112.757 90.5945C112.796 90.6591 112.822 90.7307 112.833 90.8053C114.735 103.646 109.087 152.784 108.848 154.862C108.836 155.014 108.765 155.155 108.65 155.254C108.535 155.354 108.385 155.405 108.233 155.396Z" fill="#32323B"/>
<path d="M91.4042 59.9695C87.7861 58.9361 84.5214 56.9334 81.965 54.1792C80.7748 52.9755 79.9805 51.439 79.6877 49.774C79.5724 48.9388 79.732 48.0887 80.1427 47.3517C80.5533 46.6146 81.1928 46.0304 81.965 45.6868C81.1984 45.1671 80.5672 44.4728 80.1236 43.6612C79.68 42.8497 79.4369 41.9444 79.4144 41.0205C79.3923 39.1665 79.8764 37.3416 80.8149 35.7411C81.9536 33.6293 83.8323 31.6197 86.2234 31.5516C85.3581 29.6896 84.4927 27.5324 85.3467 25.6705C85.8343 24.7585 86.5378 23.979 87.3962 23.3998C88.9948 22.1604 90.7065 21.0732 92.5087 20.1526C93.4765 19.6644 94.7063 19.233 95.5716 19.8802C96.1067 18.0036 97.1566 16.3132 98.603 14.9994C100.049 13.6856 101.835 12.8004 103.758 12.4436C105.666 12.0533 107.649 12.309 109.395 13.1702C111.028 14.3698 112.552 15.711 113.949 17.178C116.739 16.3719 121.168 17.178 123.229 19.233C124.12 20.1691 124.743 21.327 125.031 22.5854C125.32 23.8438 125.264 25.1564 124.869 26.3857C126.874 27.5151 128.611 29.0645 129.958 30.9272C130.622 31.8628 131.069 32.9341 131.266 34.0633C131.463 35.1925 131.405 36.3512 131.097 37.4554C130.758 38.5471 130.066 39.496 129.128 40.1534C128.191 40.8108 127.061 41.1397 125.916 41.0886C126.832 42.0636 127.36 43.3379 127.402 44.6732C127.444 46.0085 126.997 47.3133 126.144 48.3435C125.241 49.331 124.063 50.0272 122.76 50.3427C121.458 50.6583 120.091 50.5789 118.834 50.1146C118.479 49.9455 118.088 49.8637 117.695 49.8762C117.267 50.021 116.877 50.2618 116.557 50.5801C115.418 51.4771 113.938 51.1705 112.674 51.7155C110.962 52.7156 109.336 53.8548 107.812 55.1216C106.231 56.1837 104.597 57.1651 102.916 58.0621C101.06 59.0612 99.295 60.5826 97.2226 61.1843C95.4008 61.718 94.3988 60.9232 92.6681 60.3896L91.4042 59.9695Z" fill="#F4F4F4"/>
<path d="M96.0611 61.9109C95.2214 61.8766 94.3969 61.6759 93.6358 61.3205C93.2828 61.1956 92.9184 61.048 92.4972 60.9231L91.1991 60.5031C87.493 59.4287 84.1482 57.3728 81.5207 54.5538C80.2419 53.2704 79.4013 51.6178 79.1182 49.8307C79.0292 49.0364 79.1433 48.2325 79.4499 47.494C79.7565 46.7555 80.2457 46.1064 80.8717 45.6072C79.6225 44.4155 78.8839 42.7882 78.8108 41.0658C78.7978 39.1186 79.3132 37.2042 80.3024 35.5253C80.94 34.3218 82.6594 31.6651 85.3693 31.1314C84.5837 29.3149 83.9802 27.3167 84.8228 25.4547C85.35 24.4685 86.1077 23.6234 87.0317 22.991C88.6631 21.7194 90.4044 20.5948 92.2353 19.6303C93.1238 19.0981 94.1726 18.8969 95.1957 19.0626C95.8462 17.2299 96.9696 15.6006 98.4529 14.3388C99.9362 13.0771 101.727 12.2275 103.644 11.8758C105.671 11.4593 107.78 11.731 109.634 12.6479C111.243 13.8313 112.766 15.129 114.188 16.5308C117.046 15.8609 121.487 16.5876 123.673 18.8015C124.584 19.7582 125.238 20.9295 125.572 22.2061C125.907 23.4827 125.911 24.8229 125.586 26.1018C127.52 27.227 129.189 28.7523 130.482 30.5751C131.192 31.5954 131.663 32.7623 131.858 33.989C132.053 35.2156 131.968 36.4704 131.609 37.6597C131.275 38.6675 130.677 39.5677 129.876 40.2665C129.075 40.9654 128.101 41.4374 127.055 41.6335C127.712 42.7211 128.015 43.9848 127.923 45.2511C127.831 46.5174 127.349 47.7245 126.542 48.7067C125.568 49.7975 124.283 50.5672 122.86 50.9139C121.437 51.2607 119.941 51.168 118.572 50.6482H118.447C118.228 50.549 117.992 50.4949 117.752 50.4892C117.493 50.5652 117.258 50.7059 117.069 50.898L116.841 51.0796C116.102 51.574 115.247 51.8676 114.359 51.9311C113.838 51.9804 113.328 52.1067 112.845 52.3058C111.693 52.9025 110.612 53.626 109.622 54.463C109.087 54.8717 108.563 55.2691 108.062 55.5983C106.479 56.6701 104.837 57.6518 103.143 58.5389C102.54 58.8795 101.936 59.2655 101.31 59.6743C100.105 60.5388 98.7824 61.227 97.3819 61.7179C96.9526 61.8423 96.5081 61.9073 96.0611 61.9109ZM94.5012 20.1412C93.8875 20.1857 93.2919 20.3681 92.7591 20.6748C90.9875 21.5832 89.3029 22.6511 87.7263 23.8652C86.9512 24.3938 86.3084 25.093 85.8475 25.9088C85.096 27.5324 85.9159 29.5533 86.7357 31.3018C86.7805 31.3856 86.804 31.4792 86.804 31.5742C86.804 31.6693 86.7805 31.7629 86.7357 31.8467C86.6838 31.9246 86.6148 31.9897 86.5339 32.0369C86.453 32.0841 86.3623 32.1123 86.2688 32.1192C83.6614 32.1873 81.9534 34.8554 81.3386 36.0021C80.4544 37.5144 79.9943 39.2359 80.0064 40.9863C80.0237 41.8198 80.2392 42.6372 80.6351 43.3714C81.031 44.1057 81.596 44.7357 82.2836 45.2098C82.377 45.2633 82.4528 45.3426 82.502 45.4382C82.5512 45.5337 82.5716 45.6414 82.5608 45.7482C82.5499 45.855 82.5083 45.9564 82.441 46.0402C82.3736 46.124 82.2834 46.1865 82.1811 46.2203C81.5329 46.5247 81.0002 47.0292 80.6618 47.659C80.3234 48.2887 80.1974 49.0104 80.3024 49.7172C80.5693 51.267 81.3135 52.6955 82.4316 53.8045C84.9171 56.498 88.095 58.4613 91.6204 59.4812C92.0303 59.6288 92.463 59.7651 92.8957 59.9013C93.3284 60.0376 93.7155 60.1852 94.0343 60.3214C94.957 60.8213 96.0362 60.9513 97.0517 60.6847C98.3436 60.2243 99.5629 59.582 100.673 58.7773C101.299 58.38 101.936 57.9599 102.597 57.642C104.259 56.7571 105.874 55.787 107.436 54.7355C107.926 54.3949 108.427 54.0088 108.95 53.6001C110.001 52.7191 111.147 51.9575 112.366 51.3294C112.948 51.0872 113.561 50.9304 114.188 50.8639C114.885 50.8262 115.561 50.607 116.147 50.2281L116.363 50.0692C116.703 49.7359 117.135 49.5107 117.604 49.422C118.029 49.3883 118.456 49.4625 118.845 49.6377H118.959C120.114 50.065 121.37 50.1388 122.567 49.8495C123.764 49.5603 124.847 48.9212 125.677 48.0142C126.432 47.0916 126.829 45.9291 126.795 44.7389C126.762 43.5488 126.3 42.4103 125.495 41.5313C125.407 41.4508 125.348 41.3446 125.326 41.2282C125.303 41.1118 125.319 40.9912 125.37 40.8841C125.419 40.7753 125.502 40.6848 125.606 40.6257C125.711 40.5665 125.831 40.5418 125.95 40.5549C126.97 40.6109 127.979 40.3235 128.816 39.7387C129.652 39.1539 130.267 38.3057 130.562 37.3305C130.847 36.3079 130.899 35.2346 130.714 34.1894C130.528 33.1442 130.111 32.1536 129.491 31.2904C128.194 29.4974 126.519 28.0093 124.584 26.9306C124.473 26.8628 124.39 26.7595 124.346 26.6377C124.303 26.5159 124.302 26.3829 124.345 26.2608C124.712 25.1218 124.766 23.9051 124.499 22.7385C124.233 21.5718 123.656 20.4982 122.83 19.6303C120.895 17.6434 116.636 16.9849 114.131 17.7229C114.059 17.7495 113.982 17.7611 113.905 17.7571C113.828 17.7531 113.752 17.7335 113.683 17.6995C113.614 17.6655 113.552 17.6179 113.502 17.5595C113.452 17.501 113.414 17.433 113.391 17.3596C112.038 16.0346 110.6 14.7982 109.087 13.6584C107.461 12.8443 105.607 12.6042 103.827 12.9771C102.01 13.3146 100.323 14.1497 98.9558 15.3889C97.5883 16.6282 96.5939 18.2226 96.0839 19.9936C96.0599 20.0843 96.0143 20.1679 95.9508 20.2371C95.8873 20.3063 95.808 20.3591 95.7195 20.391C95.6308 20.4241 95.5352 20.4342 95.4416 20.4203C95.348 20.4064 95.2594 20.3689 95.1843 20.3115C94.9784 20.1889 94.7407 20.1297 94.5012 20.1412Z" fill="#32323B"/>
<path d="M117.593 51.3174C117.593 51.3174 120.155 60.4002 118.64 61.5356C117.126 62.6709 114.086 60.65 114.086 60.65" fill="#F4F4F4"/>
<path d="M117.422 62.5351C116.088 62.4055 114.81 61.9364 113.71 61.1727C113.588 61.0839 113.506 60.9513 113.48 60.8029C113.455 60.6545 113.488 60.5021 113.573 60.3779C113.659 60.2553 113.789 60.1711 113.936 60.1435C114.083 60.1158 114.235 60.147 114.359 60.2303C115.065 60.7185 117.308 61.922 118.276 61.1386C119.016 60.5482 118.276 55.6662 117.046 51.4654C117.007 51.3209 117.025 51.1669 117.098 51.0357C117.17 50.9044 117.29 50.8061 117.433 50.7615C117.58 50.7228 117.735 50.7428 117.867 50.817C117.999 50.8912 118.097 51.0139 118.139 51.1588C118.766 53.3614 120.678 60.6731 118.993 62.0242C118.547 62.3753 117.99 62.5564 117.422 62.5351Z" fill="#32323B"/>
<path d="M121.214 34.4811C121.606 34.8908 121.84 35.4258 121.874 35.9911C122.116 37.9848 121.984 40.0058 121.487 41.9517C120.635 45.8003 119.544 49.5922 118.219 53.3053C116.587 58.2554 114.849 63.1753 113.004 68.0649C111.865 71.153 103.633 68.6326 102.494 67.2361L99.7959 80.0656C99.7959 80.0656 95.5374 79.8953 89.9126 74.7635C84.2877 69.6317 84.7318 68.0535 84.7318 68.0535L89.8556 53.873C89.8556 53.873 95.2413 55.6214 100.49 50.2285C101.322 49.3656 102.028 47.8215 103.007 47.1744C104.202 46.3683 105.58 46.5613 106.65 45.3578C107.136 44.7933 107.483 44.1241 107.665 43.403C107.847 42.6819 107.858 41.9286 107.698 41.2024C107.63 40.8845 107.55 40.4985 107.789 40.2828C107.946 40.1726 108.133 40.1131 108.324 40.1125C108.855 40.0195 109.362 39.8226 109.815 39.5331C110.269 39.2437 110.661 38.8675 110.968 38.4262C111.275 37.9849 111.491 37.4873 111.604 36.9621C111.717 36.437 111.725 35.8947 111.626 35.3667C113.687 36.0252 115.725 34.3903 117.319 32.8916C116.83 33.3685 120.496 34.027 120.553 34.027C120.798 34.1394 121.021 34.293 121.214 34.4811Z" fill="#F4F4F4"/>
<path d="M99.7959 80.6335C99.6137 80.6335 95.2413 80.395 89.5482 75.1724C84.0941 70.1882 84.0714 68.3603 84.1966 67.8948L89.3205 53.6915C89.3697 53.5506 89.4725 53.4347 89.6068 53.3689C89.741 53.303 89.8958 53.2925 90.0378 53.3396C90.2428 53.4077 95.1616 54.895 100.081 49.8427C100.417 49.467 100.721 49.0645 100.991 48.6392C101.44 47.9021 102.014 47.2489 102.688 46.7091C103.211 46.3861 103.779 46.1413 104.373 45.9825C105.077 45.8463 105.724 45.5021 106.229 44.9947C106.66 44.4997 106.969 43.912 107.133 43.2776C107.297 42.6432 107.311 41.9796 107.174 41.3389C107.079 41.0935 107.054 40.8266 107.103 40.5679C107.151 40.3093 107.27 40.0691 107.447 39.8743C107.672 39.6876 107.952 39.5799 108.245 39.5677C108.705 39.4987 109.146 39.3336 109.539 39.0832C109.931 38.8328 110.266 38.5027 110.522 38.1145C110.799 37.7496 110.995 37.3301 111.097 36.8837C111.2 36.4374 111.205 35.9745 111.114 35.5259C111.092 35.4281 111.096 35.3261 111.126 35.2304C111.156 35.1347 111.21 35.0486 111.285 34.9809C111.356 34.9096 111.447 34.86 111.546 34.8379C111.644 34.8158 111.747 34.8221 111.843 34.856C113.619 35.4123 115.498 33.8909 116.932 32.5058C116.985 32.4526 117.048 32.4104 117.118 32.3815C117.187 32.3527 117.261 32.3379 117.337 32.3379C117.412 32.3379 117.486 32.3527 117.555 32.3815C117.625 32.4104 117.688 32.4526 117.741 32.5058C117.812 32.5874 117.863 32.6847 117.889 32.7896C118.741 33.1091 119.622 33.3486 120.519 33.5049L120.781 33.573C121.083 33.6886 121.364 33.8536 121.612 34.0612C122.089 34.5588 122.382 35.2034 122.443 35.8892C122.703 37.9539 122.572 40.0491 122.056 42.0655C121.288 45.5767 120.296 49.0352 119.084 52.4199L118.72 53.5553C117.103 58.4941 115.304 63.4669 113.505 68.3149C113.287 68.8132 112.934 69.241 112.485 69.5499C112.037 69.8589 111.51 70.0367 110.966 70.0633C108.136 70.2747 105.306 69.6551 102.825 68.2808L100.32 80.2361C100.286 80.3491 100.217 80.4486 100.123 80.52C100.029 80.5914 99.9142 80.6312 99.7959 80.6335ZM85.2669 68.2354C85.2669 68.2354 85.4149 69.8703 90.2997 74.3436C94.6151 78.2833 98.1221 79.2256 99.3518 79.4413L101.937 67.1114C101.959 67.006 102.01 66.909 102.086 66.8318C102.161 66.7545 102.257 66.7003 102.362 66.6753C102.467 66.6503 102.577 66.6556 102.679 66.6906C102.781 66.7256 102.871 66.7889 102.939 66.873C103.588 67.6677 107.994 69.348 110.818 68.8939C111.161 68.8875 111.496 68.7879 111.787 68.6059C112.078 68.4239 112.314 68.1663 112.469 67.8607C114.313 63.0241 116.067 58.0626 117.672 53.1011L118.037 51.9658C119.215 48.6238 120.181 45.2109 120.929 41.7476C121.399 39.894 121.53 37.9709 121.316 36.0708C121.29 35.6289 121.122 35.2071 120.838 34.8673C120.687 34.7468 120.518 34.651 120.337 34.5835H120.223C119.186 34.4114 118.173 34.118 117.206 33.7093C115.816 34.9809 114.097 36.1957 112.275 36.0481C112.276 37.0079 111.978 37.9442 111.421 38.7275C111.079 39.2438 110.631 39.6824 110.107 40.0149C109.583 40.3474 108.995 40.5664 108.381 40.6576H108.131C108.187 40.7763 108.225 40.9025 108.245 41.0323C108.438 41.8542 108.432 42.71 108.228 43.5292C108.024 44.3484 107.628 45.1076 107.072 45.744C106.435 46.4093 105.615 46.8715 104.715 47.0724C104.224 47.1921 103.756 47.3875 103.326 47.6514C102.776 48.1171 102.307 48.6694 101.937 49.2863C101.627 49.7595 101.281 50.2075 100.9 50.6261C96.3458 55.281 91.7913 54.8609 90.22 54.5544L85.2669 68.2468V68.2354Z" fill="#32323B"/>
<path d="M104.612 48.6391C104.878 47.3539 104.775 46.0201 104.316 44.7903C104.078 43.7974 103.694 42.8449 103.178 41.9633C102.936 41.5353 102.604 41.1646 102.205 40.8766C101.806 40.5885 101.349 40.3898 100.866 40.2943C100.416 40.2662 99.9651 40.3337 99.5431 40.4922C99.1211 40.6507 98.7377 40.8967 98.418 41.2139C97.7815 41.8548 97.2987 42.6311 97.0061 43.4846C96.3259 45.326 96.1445 47.3136 96.4804 49.2471C96.8162 51.1806 97.6574 52.9916 98.919 54.4976L98.7369 54.1116" fill="#F4F4F4"/>
<path d="M98.8622 55.0643C98.7793 55.0644 98.6975 55.0461 98.6227 55.0108C98.5479 54.9754 98.4819 54.9239 98.4295 54.8599C97.1097 53.2726 96.2293 51.3687 95.8757 49.3372C95.5222 47.3056 95.7078 45.2172 96.4141 43.2793C96.7397 42.3473 97.2731 41.5011 97.974 40.8043C98.3508 40.4295 98.8042 40.1401 99.3033 39.9559C99.8024 39.7718 100.335 39.6971 100.866 39.737C101.455 39.8233 102.016 40.0406 102.509 40.3727C103.002 40.7049 103.413 41.1434 103.713 41.6558C104.236 42.5906 104.62 43.5965 104.851 44.6418C105.342 45.975 105.445 47.4196 105.147 48.8085C105.104 48.9591 105.002 49.0861 104.864 49.1617C104.726 49.2373 104.564 49.2552 104.413 49.2116C104.262 49.1679 104.135 49.0662 104.059 48.9289C103.983 48.7915 103.965 48.6298 104.009 48.4793C104.223 47.2914 104.113 46.0678 103.69 44.937C103.484 44.0031 103.143 43.1043 102.677 42.2689C102.467 41.9017 102.179 41.5851 101.832 41.3418C101.486 41.0984 101.09 40.9343 100.673 40.861C100.305 40.842 99.9367 40.901 99.5933 41.0341C99.2498 41.1672 98.9385 41.3713 98.68 41.6331C98.1209 42.2176 97.7006 42.9199 97.4502 43.6881C96.8533 45.3227 96.6658 47.078 96.9039 48.8014C97.142 50.5248 97.7986 52.1642 98.8166 53.577C98.8914 53.5991 98.9605 53.6368 99.0194 53.6877C99.0784 53.7386 99.1257 53.8015 99.1582 53.8722L99.3404 54.2582C99.3983 54.3821 99.4094 54.5226 99.3718 54.654C99.3341 54.7854 99.2502 54.8988 99.1354 54.9735C99.053 55.0253 98.9593 55.0565 98.8622 55.0643Z" fill="#32323B"/>
<path d="M102.494 67.2355C102.494 67.2355 98.68 64.5788 97.6325 61.0479C97.6325 61.0479 95.4919 68.7001 101.287 72.9464L102.494 67.2355Z" fill="#32323B"/>
<path d="M101.288 73.5141C101.17 73.5135 101.055 73.478 100.957 73.4119C94.9112 68.9727 97.0632 60.923 97.0746 60.923C97.107 60.803 97.178 60.6969 97.2768 60.621C97.3755 60.5451 97.4965 60.5036 97.6212 60.5029C97.7439 60.5047 97.8629 60.5452 97.9611 60.6187C98.0593 60.6921 98.1316 60.7947 98.1677 60.9117C99.1355 64.1928 102.722 66.7587 102.813 66.7928C102.904 66.8567 102.973 66.9456 103.014 67.0484C103.054 67.1513 103.064 67.2637 103.041 67.3718L101.834 73.0486C101.817 73.143 101.775 73.2314 101.713 73.305C101.651 73.3786 101.571 73.435 101.481 73.4687C101.42 73.4946 101.354 73.5099 101.288 73.5141ZM97.8717 63.0575C97.6526 64.6694 97.8134 66.31 98.3411 67.8492C98.8688 69.3884 99.749 70.7837 100.912 71.9246L101.845 67.474C100.257 66.2639 98.913 64.7654 97.8831 63.0575H97.8717Z" fill="#32323B"/>
<path d="M116.084 46.5261C116.435 45.5594 116.412 44.6652 116.034 44.5288C115.656 44.3923 115.065 45.0653 114.714 46.032C114.363 46.9986 114.386 47.8928 114.764 48.0293C115.143 48.1657 115.733 47.4927 116.084 46.5261Z" fill="#32323B"/>
<path d="M114.04 60.6961L109.167 56.8359C109.167 56.8359 105.398 62.9782 107.265 66.214C109.133 69.4497 112.822 63.9092 114.04 60.6961Z" fill="#F4F4F4"/>
<path d="M108.666 67.7691C108.261 67.757 107.868 67.6313 107.531 67.4064C107.195 67.1814 106.929 66.8664 106.764 66.4975C104.76 63.0119 108.518 56.8016 108.689 56.5404C108.73 56.4716 108.787 56.4126 108.853 56.3675C108.92 56.3224 108.996 56.2923 109.076 56.2793C109.153 56.2642 109.234 56.2666 109.31 56.2863C109.387 56.3059 109.459 56.3423 109.52 56.3928L114.393 60.253C114.486 60.3296 114.553 60.4326 114.586 60.5482C114.618 60.6639 114.614 60.7866 114.575 60.9002C113.79 62.9665 111.273 67.5647 108.882 67.7123L108.666 67.7691ZM109.338 57.6985C108.495 59.2312 106.388 63.5569 107.755 65.9412C108.131 66.5997 108.495 66.6451 108.734 66.6337C110.1 66.5202 112.264 63.5342 113.357 60.8888L109.338 57.6985Z" fill="#32323B"/>
<path d="M186.488 75.1768L231.599 133.839L119.655 219.428L74.5438 160.766L186.488 75.1768Z" fill="#FF9ACB"/>
<path d="M119.654 219.986C119.567 219.985 119.482 219.964 119.405 219.924C119.328 219.885 119.261 219.828 119.21 219.759L74.0969 161.106C74.0511 161.047 74.0175 160.98 73.998 160.907C73.9785 160.835 73.9734 160.76 73.983 160.686C74.0055 160.535 74.0825 160.398 74.1994 160.3L186.138 74.7171C186.197 74.6703 186.264 74.6358 186.337 74.6155C186.409 74.5953 186.484 74.5897 186.559 74.5993C186.633 74.6088 186.705 74.6332 186.77 74.671C186.834 74.7088 186.891 74.7593 186.935 74.8193L232.048 133.483C232.094 133.542 232.128 133.609 232.148 133.682C232.168 133.754 232.172 133.829 232.162 133.903C232.139 134.05 232.062 134.184 231.946 134.278L120.007 219.861C119.906 219.94 119.782 219.984 119.654 219.986ZM75.3494 160.856L119.756 218.623L230.784 133.721L186.378 75.966L75.3494 160.856Z" fill="#32323B"/>
<path d="M93.2601 107.552C93.2601 107.552 128.034 149.912 134.319 151.422C140.604 152.932 150.966 151.081 150.26 154.396C149.554 157.712 139.534 157.723 139.534 157.723C139.534 157.723 151.809 163.059 150.294 166.658C148.78 170.257 142.984 173.198 137.769 170.984C132.554 168.77 129.674 164.887 125.142 162.673C120.61 160.459 78.0935 121.21 78.0935 121.21L93.2601 107.552Z" fill="#F4F4F4"/>
<path d="M141.55 172.324C140.172 172.326 138.808 172.047 137.542 171.506C134.96 170.304 132.554 168.757 130.391 166.908C128.699 165.471 126.855 164.222 124.891 163.184C120.337 160.913 79.4371 123.231 77.695 121.619C77.6376 121.565 77.5918 121.5 77.5605 121.427C77.5292 121.355 77.513 121.277 77.5128 121.199C77.5137 121.119 77.5314 121.04 77.5648 120.968C77.5981 120.896 77.6464 120.831 77.7064 120.778L92.873 107.154C92.9312 107.105 92.9987 107.068 93.0715 107.044C93.1442 107.021 93.2209 107.012 93.2971 107.019C93.3732 107.025 93.4474 107.046 93.5153 107.081C93.5832 107.116 93.6435 107.164 93.6928 107.222C103.337 118.962 129.446 149.696 134.456 150.888C137.14 151.392 139.866 151.635 142.597 151.615C146.434 151.717 149.429 151.796 150.476 153.079C150.634 153.285 150.743 153.524 150.796 153.777C150.85 154.03 150.845 154.292 150.784 154.544C150.18 157.212 145.034 157.95 141.868 158.222C145.626 160.062 152.116 163.774 150.784 166.908C149.737 169.053 147.896 170.71 145.649 171.529C144.347 172.055 142.955 172.325 141.55 172.324ZM78.9247 121.233C83.4793 125.479 121.248 160.153 125.392 162.185C127.422 163.262 129.33 164.553 131.086 166.034C133.167 167.83 135.489 169.328 137.986 170.484C139.131 170.962 140.359 171.209 141.601 171.209C142.842 171.209 144.071 170.962 145.216 170.484C147.199 169.784 148.832 168.343 149.77 166.465C150.67 164.331 144.191 160.391 139.306 158.268C139.187 158.216 139.088 158.124 139.028 158.008C138.968 157.893 138.95 157.76 138.976 157.632C139 157.503 139.07 157.386 139.172 157.303C139.274 157.22 139.402 157.176 139.534 157.178C143.212 157.178 149.235 156.395 149.702 154.306C149.732 154.219 149.741 154.126 149.727 154.035C149.713 153.944 149.677 153.857 149.622 153.783C148.939 152.909 145.717 152.83 142.608 152.75C139.793 152.768 136.983 152.514 134.217 151.989C128.102 150.536 97.2226 113.251 93.226 108.403L78.9247 121.233Z" fill="#32323B"/>
<path d="M81.5435 86.1279L95.822 104.816L75.4974 123.504L63.2913 109.482" fill="#32323B"/>
<path d="M75.4975 124.083C75.3443 124.073 75.201 124.004 75.099 123.89L62.8928 109.868C62.7885 109.762 62.7301 109.619 62.7301 109.471C62.7301 109.322 62.7885 109.179 62.8928 109.073C62.9458 109.02 63.0087 108.978 63.0781 108.949C63.1475 108.92 63.2219 108.905 63.2971 108.905C63.3722 108.905 63.4466 108.92 63.516 108.949C63.5854 108.978 63.6483 109.02 63.7013 109.073L75.5203 122.697L95.0592 104.782L81.0882 86.5024C80.9961 86.3819 80.9557 86.2299 80.976 86.0798C80.9963 85.9297 81.0756 85.7938 81.1964 85.7019C81.3172 85.6101 81.4696 85.5699 81.6201 85.5901C81.7707 85.6103 81.907 85.6893 81.9991 85.8098L96.3117 104.464C96.3957 104.579 96.435 104.721 96.4224 104.862C96.4098 105.004 96.3463 105.137 96.2434 105.236L75.9188 123.924C75.803 124.027 75.6529 124.084 75.4975 124.083Z" fill="#32323B"/>
<path d="M291.758 111.594C295.128 111.812 298.418 112.717 301.425 114.251C306.663 116.749 311.673 120.859 312.811 126.535C313.756 131.077 312.003 135.868 309.783 140.012C307.562 144.156 304.83 148.107 303.588 152.637C302.347 157.167 302.928 162.617 306.526 165.648C301.778 163.548 296.939 161.379 293.113 157.882C290.836 155.827 288.946 153.171 288.729 150.151C288.738 147.648 289.347 145.184 290.505 142.964C291.963 139.558 293.523 136.095 293.751 132.405C293.978 128.715 292.612 124.662 289.401 122.8C286.6 121.165 277.434 121.324 278.869 116.192C280.03 112.116 288.479 111.412 291.758 111.594Z" fill="#F4F4F4"/>
<path d="M306.572 166.159C306.497 166.176 306.419 166.176 306.344 166.159C301.607 164.058 296.711 161.89 292.771 158.291C289.982 155.736 288.411 152.932 288.217 150.173C288.217 147.581 288.842 145.027 290.039 142.725L290.232 142.282C291.599 139.092 293.022 135.788 293.238 132.359C293.489 128.431 291.895 124.866 289.173 123.277C288.029 122.753 286.824 122.371 285.587 122.141C282.877 121.505 279.802 120.779 278.652 118.849C278.408 118.418 278.257 117.941 278.208 117.448C278.159 116.955 278.213 116.458 278.368 115.988C279.62 111.514 288.479 110.844 291.781 110.981C295.232 111.195 298.6 112.118 301.676 113.694C305.456 115.499 312.003 119.541 313.426 126.376C314.246 130.361 313.267 134.766 310.341 140.227C309.771 141.306 309.202 142.362 308.553 143.429C306.717 146.34 305.252 149.467 304.192 152.739C303.144 156.52 303.247 162.038 306.947 165.228C307.055 165.315 307.126 165.439 307.147 165.575C307.168 165.711 307.138 165.851 307.061 165.966C307.003 166.037 306.927 166.091 306.841 166.125C306.756 166.159 306.663 166.17 306.572 166.159ZM291.018 112.082C287.204 112.082 280.395 113.036 279.495 116.283C279.38 116.605 279.335 116.947 279.362 117.288C279.39 117.628 279.489 117.959 279.654 118.258C280.554 119.78 283.378 120.438 285.871 121.029C287.219 121.26 288.529 121.672 289.765 122.255C292.863 124.049 294.684 128.034 294.4 132.382C294.172 136.015 292.715 139.41 291.291 142.68L291.098 143.134C290.062 145.564 289.208 147.766 289.378 150.048C289.606 153.159 291.781 155.725 293.58 157.405C296.828 160.158 300.49 162.384 304.431 164.002C302.154 160.516 302.154 155.816 303.11 152.432C304.193 149.064 305.696 145.844 307.585 142.85C308.189 141.794 308.792 140.75 309.361 139.682C312.151 134.471 313.096 130.304 312.333 126.592C311.012 120.234 304.795 116.374 301.209 114.705C298.276 113.198 295.062 112.313 291.769 112.105L291.018 112.082Z" fill="#32323B"/>
<path d="M287.659 112.729C288.767 114.644 289.192 116.877 288.866 119.064C288.77 120.541 288.235 121.956 287.329 123.129C286.731 123.796 285.986 124.315 285.151 124.644C284.317 124.973 283.417 125.104 282.524 125.025C281.718 125.013 280.947 124.701 280.36 124.151C279.936 123.627 279.661 123 279.563 122.334C278.584 117.679 281.909 103.714 287.659 112.729Z" fill="#32323B"/>
<path d="M282.979 125.57H282.478C281.529 125.548 280.623 125.171 279.939 124.514C279.445 123.914 279.123 123.193 279.005 122.425C278.288 119.019 279.745 110.731 283.059 109.38C284.721 108.71 286.475 109.721 288.137 112.4C289.316 114.427 289.773 116.791 289.435 119.11C289.327 120.695 288.748 122.213 287.773 123.47C287.169 124.139 286.43 124.673 285.603 125.035C284.776 125.397 283.882 125.58 282.979 125.57ZM284.027 110.311C283.842 110.312 283.66 110.35 283.492 110.425C281.009 111.435 279.427 118.94 280.076 122.187C280.156 122.748 280.38 123.28 280.725 123.731C281.222 124.169 281.86 124.415 282.524 124.423C283.327 124.495 284.136 124.38 284.887 124.086C285.638 123.792 286.31 123.329 286.851 122.732C287.685 121.647 288.177 120.339 288.262 118.974C288.567 116.912 288.166 114.808 287.124 113.002C286.361 111.719 285.199 110.311 284.027 110.311Z" fill="#32323B"/>
<path d="M257.61 142.839C258.977 144.417 261.026 145.314 264.442 144.962C267.269 144.577 269.955 143.492 272.253 141.806C276.746 138.637 280.263 134.282 282.411 129.23C284.559 124.178 285.253 118.629 284.414 113.206C282.546 102.238 271.57 91.3391 259.762 95.5512C257.772 96.2775 255.965 97.4293 254.468 98.9258C252.971 100.422 251.82 102.227 251.097 104.214C250.304 103.953 249.451 103.927 248.643 104.138C247.835 104.35 247.105 104.79 246.543 105.406C243.491 108.449 243.617 111.685 245.256 115.329C247.955 121.312 251.268 127.012 253.693 133.12C255.071 136.685 255.618 140.511 257.61 142.839Z" fill="#F4F4F4"/>
<path d="M262.996 145.655C261.906 145.723 260.815 145.542 259.807 145.124C258.798 144.707 257.899 144.065 257.178 143.248C255.809 141.344 254.838 139.186 254.32 136.901C253.955 135.766 253.58 134.54 253.181 133.37C251.758 129.794 249.993 126.297 248.285 122.902C247.146 120.529 245.86 118.077 244.755 115.613C242.808 111.287 243.252 107.938 246.156 105.043C246.743 104.423 247.478 103.961 248.292 103.699C249.106 103.437 249.973 103.384 250.813 103.544C251.602 101.593 252.795 99.8293 254.314 98.3681C255.832 96.9068 257.642 95.7808 259.626 95.0633C261.93 94.2386 264.391 93.943 266.826 94.1985C269.261 94.4541 271.606 95.2542 273.688 96.5392C276.649 98.3577 279.194 100.778 281.156 103.641C283.118 106.505 284.453 109.749 285.074 113.161C285.883 118.687 285.144 124.329 282.937 129.463C280.731 134.596 277.144 139.021 272.572 142.249C270.193 143.985 267.419 145.105 264.499 145.507C264.001 145.583 263.499 145.633 262.996 145.655ZM257.998 142.464C259.387 144.088 261.413 144.735 264.34 144.394C267.074 144.02 269.67 142.966 271.889 141.329C276.278 138.213 279.716 133.945 281.82 128.998C283.925 124.052 284.614 118.621 283.81 113.308C283.224 110.06 281.959 106.972 280.097 104.243C278.236 101.514 275.819 99.2067 273.005 97.4702C271.066 96.276 268.882 95.5315 266.616 95.2917C264.349 95.052 262.058 95.3231 259.91 96.0851C257.997 96.7777 256.26 97.8811 254.822 99.3172C253.383 100.753 252.279 102.487 251.587 104.396C251.56 104.468 251.519 104.535 251.467 104.591C251.414 104.648 251.35 104.693 251.28 104.725C251.208 104.759 251.131 104.776 251.052 104.776C250.973 104.776 250.895 104.759 250.824 104.725C250.122 104.514 249.374 104.508 248.67 104.71C247.965 104.911 247.333 105.31 246.85 105.86C244.266 108.438 243.913 111.219 245.712 115.159C246.85 117.6 247.989 120.041 249.23 122.403C250.938 125.809 252.714 129.351 254.16 132.961C254.639 134.165 255.014 135.391 255.379 136.583C255.872 138.712 256.769 140.727 258.02 142.521L257.998 142.464Z" fill="#32323B"/>
<path d="M248.798 117.521C248.798 117.521 241.647 123.606 242.228 125.468C242.808 127.33 246.532 127.273 246.532 127.273" fill="#F4F4F4"/>
<path d="M246.463 127.83C245.791 127.83 242.341 127.727 241.681 125.627C241.02 123.527 246.679 118.576 248.422 117.089C248.539 116.993 248.689 116.946 248.84 116.959C248.991 116.972 249.131 117.043 249.23 117.157C249.279 117.213 249.316 117.279 249.339 117.35C249.362 117.42 249.371 117.495 249.364 117.569C249.358 117.643 249.337 117.715 249.302 117.781C249.267 117.847 249.219 117.905 249.162 117.952C245.848 120.779 242.489 124.389 242.774 125.286C243.15 126.422 245.655 126.717 246.52 126.694C246.669 126.694 246.812 126.752 246.919 126.856C247.025 126.96 247.086 127.102 247.089 127.251C247.09 127.4 247.031 127.544 246.927 127.652C246.823 127.76 246.681 127.824 246.531 127.83H246.463Z" fill="#32323B"/>
<path d="M244.915 158.495C252.953 159.108 266.674 151.036 266.776 150.729C268.237 145.524 269.434 140.25 270.363 134.925C270.363 134.925 264.92 133.415 263.531 126.047C262.142 118.678 255.356 117.565 252.669 107.881C248.763 109.55 248.114 115.261 247.112 118.814C245.708 123.825 244.425 128.858 243.264 133.915C242.512 137.116 250.71 139.591 252.373 139.012C250.642 143.803 250.642 143.803 244.915 158.495Z" fill="#F4F4F4"/>
<path d="M245.757 159.098C245.461 159.098 245.165 159.098 244.869 159.098C244.782 159.09 244.697 159.063 244.622 159.018C244.547 158.972 244.483 158.91 244.436 158.836C244.395 158.758 244.373 158.67 244.373 158.581C244.373 158.492 244.395 158.404 244.436 158.326C249.799 144.542 250.13 143.691 251.667 139.706C248.844 139.48 246.151 138.43 243.924 136.686C243.486 136.365 243.146 135.927 242.945 135.424C242.744 134.92 242.688 134.37 242.785 133.836C243.924 128.795 245.245 123.709 246.645 118.724C246.805 118.134 246.964 117.476 247.135 116.783C247.966 113.275 249.014 108.915 252.532 107.416C252.605 107.383 252.685 107.365 252.765 107.365C252.846 107.365 252.926 107.383 252.999 107.416C253.072 107.453 253.137 107.504 253.19 107.566C253.243 107.629 253.283 107.701 253.306 107.78C254.65 112.65 257.03 115.227 259.318 117.725C261.607 120.223 263.486 122.267 264.169 125.979C265.433 132.882 270.34 134.358 270.545 134.415C270.682 134.452 270.8 134.54 270.876 134.659C270.952 134.779 270.98 134.923 270.955 135.062C270.028 140.419 268.823 145.724 267.346 150.957C267.038 151.752 253.762 159.098 245.757 159.098ZM245.757 157.962C253.113 157.962 264.909 151.445 266.253 150.412C267.649 145.436 268.789 140.393 269.668 135.301C268.234 134.722 264.135 132.542 262.962 126.15C262.347 122.744 260.514 120.768 258.407 118.463C255.62 115.755 253.533 112.412 252.327 108.722C249.788 110.243 248.911 113.979 248.171 117.01C248 117.714 247.841 118.384 247.67 118.997C246.281 123.97 244.983 129.033 243.822 134.063C243.784 134.401 243.838 134.742 243.979 135.052C244.119 135.361 244.34 135.628 244.619 135.823C246.714 137.764 251.302 138.797 252.282 138.491C252.384 138.462 252.492 138.461 252.594 138.489C252.697 138.517 252.789 138.573 252.862 138.65C252.935 138.728 252.984 138.824 253.004 138.929C253.024 139.033 253.014 139.141 252.976 139.24C251.166 143.929 251.166 144.009 245.734 157.962H245.757Z" fill="#32323B"/>
<path d="M244.493 130.248C244.493 130.248 247.693 133.745 250.904 130.328L244.493 130.248Z" fill="#F4F4F4"/>
<path d="M247.864 132.394C246.436 132.291 245.097 131.664 244.106 130.634C244.055 130.579 244.016 130.514 243.99 130.444C243.964 130.374 243.953 130.299 243.956 130.224C243.959 130.149 243.977 130.076 244.009 130.008C244.04 129.94 244.085 129.879 244.14 129.828C244.196 129.777 244.26 129.738 244.331 129.712C244.402 129.687 244.477 129.675 244.552 129.678C244.627 129.681 244.7 129.699 244.769 129.731C244.837 129.762 244.898 129.807 244.949 129.862C245.723 130.665 246.762 131.161 247.875 131.259C248.382 131.224 248.878 131.09 249.333 130.864C249.789 130.638 250.195 130.325 250.528 129.942C250.58 129.887 250.641 129.844 250.71 129.813C250.779 129.782 250.852 129.766 250.928 129.763C251.003 129.761 251.077 129.774 251.148 129.801C251.218 129.827 251.282 129.868 251.336 129.919C251.391 129.97 251.435 130.032 251.466 130.1C251.496 130.169 251.513 130.242 251.515 130.317C251.517 130.392 251.505 130.467 251.478 130.537C251.451 130.607 251.411 130.671 251.359 130.725C250.927 131.232 250.392 131.643 249.79 131.93C249.187 132.218 248.531 132.376 247.864 132.394Z" fill="#32323B"/>
<path d="M252.475 139.035C252.475 139.035 256.745 140.046 259.569 137.707C259.569 137.707 257.098 145.268 249.936 145.598L252.475 139.035Z" fill="#32323B"/>
<path d="M249.936 146.165C249.846 146.166 249.757 146.146 249.676 146.107C249.595 146.067 249.524 146.01 249.469 145.938C249.416 145.859 249.382 145.768 249.37 145.674C249.358 145.579 249.369 145.483 249.401 145.393L251.951 138.831C252.002 138.704 252.096 138.599 252.217 138.535C252.338 138.47 252.478 138.45 252.612 138.479C252.612 138.479 256.643 139.399 259.204 137.264C259.304 137.192 259.423 137.153 259.546 137.153C259.669 137.153 259.788 137.192 259.888 137.264C259.991 137.332 260.069 137.433 260.111 137.55C260.152 137.666 260.153 137.793 260.115 137.911C260.115 137.991 257.428 145.859 249.959 146.199L249.936 146.165ZM252.839 139.682L250.801 144.95C254.912 144.36 257.246 141.136 258.305 139.126C256.568 139.804 254.678 139.996 252.839 139.682Z" fill="#32323B"/>
<path d="M251.914 115.765C252.128 114.766 251.982 113.888 251.588 113.804C251.195 113.72 250.703 114.463 250.489 115.462C250.275 116.462 250.421 117.34 250.815 117.424C251.208 117.508 251.701 116.765 251.914 115.765Z" fill="#32323B"/>
<path d="M258.259 123.004C258.757 121.79 259.585 120.74 260.651 119.972C261.38 119.276 262.209 118.69 263.11 118.235C263.569 118.017 264.071 117.904 264.579 117.904C265.087 117.904 265.589 118.017 266.048 118.235C266.434 118.459 266.769 118.762 267.03 119.124C267.291 119.486 267.472 119.899 267.562 120.336C267.737 121.216 267.706 122.126 267.471 122.992C267.015 124.893 266.064 126.64 264.714 128.057C263.365 129.474 261.665 130.512 259.785 131.065L260.15 130.849" fill="#F4F4F4"/>
<path d="M259.785 131.587C259.674 131.589 259.564 131.558 259.471 131.497C259.378 131.437 259.305 131.349 259.261 131.247C259.209 131.122 259.203 130.982 259.245 130.853C259.286 130.724 259.373 130.614 259.489 130.543L259.854 130.316C259.92 130.276 259.993 130.251 260.07 130.241C260.146 130.231 260.224 130.237 260.298 130.259C261.926 129.653 263.38 128.658 264.533 127.362C265.687 126.065 266.504 124.507 266.913 122.823C267.127 122.041 267.158 121.222 267.004 120.427C266.935 120.067 266.789 119.726 266.577 119.426C266.365 119.127 266.092 118.876 265.774 118.69C265.388 118.522 264.97 118.441 264.549 118.453C264.127 118.465 263.714 118.569 263.338 118.758C262.501 119.192 261.734 119.746 261.061 120.404C260.063 121.1 259.276 122.054 258.783 123.163C258.736 123.306 258.635 123.426 258.501 123.496C258.367 123.566 258.211 123.581 258.066 123.538C257.923 123.493 257.804 123.394 257.733 123.263C257.663 123.131 257.647 122.977 257.69 122.834C258.224 121.516 259.12 120.374 260.275 119.541C261.042 118.796 261.922 118.176 262.882 117.702C263.415 117.446 263.999 117.313 264.59 117.312C265.182 117.313 265.766 117.446 266.298 117.702C266.759 117.965 267.159 118.323 267.471 118.752C267.783 119.18 268 119.67 268.109 120.189C268.297 121.152 268.266 122.145 268.018 123.095C267.529 125.093 266.524 126.929 265.104 128.421C263.684 129.913 261.898 131.008 259.922 131.599L259.785 131.587Z" fill="#32323B"/>
<path d="M243.571 152.535C243.571 152.535 267.938 142.726 275.555 151.286C283.173 159.847 287.397 179.67 284.175 222.609L227.175 220.588C227.175 220.588 231.729 157.814 243.571 152.535Z" fill="#32323B"/>
<path d="M209.811 165.523C207.18 163.252 185.284 134.335 185 129.601C184.715 124.866 182.722 116.612 181.584 117.191C180.445 117.77 179.876 125.298 179.876 125.298C179.876 125.298 174.467 115.602 172.19 115.681C169.913 115.761 164.493 122.039 164.778 125.298C165.062 128.556 190.135 188.196 201.806 189.899C213.477 191.602 243.844 177.967 246.611 177.41C249.378 176.854 259.512 154.703 246.611 151.445C246.611 151.433 212.452 167.76 209.811 165.523Z" fill="#F4F4F4"/>
<path d="M204.026 190.603C203.265 190.608 202.504 190.558 201.749 190.455C189.554 188.684 164.55 128.965 164.174 125.343C163.992 123.197 165.928 120.177 167.59 118.236C168.228 117.52 170.437 115.17 172.145 115.113C174.183 115.113 177.576 120.336 179.409 123.447C179.705 120.608 180.263 117.18 181.276 116.635C181.402 116.565 181.543 116.529 181.686 116.529C181.83 116.529 181.971 116.565 182.096 116.635C183.679 117.543 185.284 125.627 185.512 129.487C185.774 133.835 206.987 162.333 210.118 165.001C211.746 166.136 229.794 158.734 246.315 150.843C246.375 150.818 246.438 150.805 246.503 150.805C246.568 150.805 246.632 150.818 246.691 150.843C251.245 151.978 253.648 155.589 253.523 161.186C253.352 168.271 248.866 177.467 246.691 177.921C246.122 178.035 244.027 178.852 241.362 179.897C232.276 183.484 214.024 190.603 204.026 190.603ZM172.224 116.249C171.587 116.249 170.198 117.134 168.547 118.985C166.52 121.256 165.244 123.787 165.37 125.241C165.7 129.055 191.126 187.765 201.908 189.331C210.847 190.637 231.217 182.69 241.009 178.875C243.924 177.739 245.86 176.979 246.52 176.842C247.738 176.593 252.293 168.498 252.464 161.197C252.578 156.202 250.642 153.114 246.691 152.035C245.381 152.659 237.502 156.383 229.441 159.835C211.371 167.578 210.027 166.443 209.458 165.954C206.987 163.843 184.761 134.687 184.408 129.623C184.146 125.263 182.586 118.985 181.698 117.827C181.208 118.678 180.65 122.232 180.422 125.32C180.416 125.444 180.369 125.562 180.289 125.657C180.208 125.751 180.099 125.817 179.978 125.844C179.857 125.871 179.73 125.858 179.617 125.806C179.504 125.755 179.411 125.668 179.352 125.559C176.87 121.074 173.431 116.249 172.224 116.249Z" fill="#32323B"/>
<path d="M227.175 220.634L225.854 229.433H284.175V222.609L227.175 220.634Z" fill="#32323B"/>
<path d="M284.186 230H225.854C225.772 230.001 225.692 229.984 225.617 229.951C225.543 229.917 225.477 229.868 225.423 229.806C225.37 229.745 225.331 229.672 225.309 229.594C225.287 229.515 225.283 229.433 225.296 229.353L226.605 220.543C226.62 220.403 226.689 220.274 226.798 220.185C226.906 220.096 227.046 220.053 227.186 220.066L284.186 222.041C284.333 222.047 284.472 222.109 284.574 222.215C284.676 222.321 284.733 222.462 284.733 222.609V229.421C284.736 229.57 284.68 229.714 284.578 229.822C284.476 229.93 284.335 229.994 284.186 230ZM226.526 228.865H283.617V223.188L227.664 221.246L226.526 228.865Z" fill="#32323B"/>
<path d="M46.9748 38.7838H18.099C17.949 38.7809 17.8058 38.7201 17.6997 38.6143C17.5936 38.5085 17.5326 38.3658 17.5297 38.2161C17.5297 38.0656 17.5897 37.9212 17.6965 37.8147C17.8032 37.7082 17.948 37.6484 18.099 37.6484H46.9748C47.1258 37.6484 47.2706 37.7082 47.3773 37.8147C47.4841 37.9212 47.5441 38.0656 47.5441 38.2161C47.5441 38.3667 47.4841 38.5111 47.3773 38.6175C47.2706 38.724 47.1258 38.7838 46.9748 38.7838Z" fill="#C6C6C6"/>
<path d="M32.5483 54.9625H18.099C17.948 54.9625 17.8032 54.9027 17.6965 54.7962C17.5897 54.6898 17.5297 54.5454 17.5297 54.3948C17.5326 54.2452 17.5936 54.1025 17.6997 53.9966C17.8058 53.8908 17.949 53.8301 18.099 53.8271H32.5483C32.6993 53.8271 32.8441 53.887 32.9509 53.9934C33.0576 54.0999 33.1176 54.2443 33.1176 54.3948C33.1176 54.5454 33.0576 54.6898 32.9509 54.7962C32.8441 54.9027 32.6993 54.9625 32.5483 54.9625Z" fill="#C6C6C6"/>
<path d="M323.708 185.767H303.543C303.392 185.767 303.247 185.707 303.14 185.601C303.034 185.494 302.974 185.35 302.974 185.2C302.974 185.049 303.034 184.905 303.14 184.798C303.247 184.692 303.392 184.632 303.543 184.632H323.731C323.882 184.632 324.027 184.692 324.133 184.798C324.24 184.905 324.3 185.049 324.3 185.2C324.3 185.276 324.285 185.352 324.255 185.422C324.225 185.493 324.181 185.556 324.126 185.609C324.07 185.662 324.005 185.704 323.933 185.731C323.861 185.758 323.785 185.77 323.708 185.767Z" fill="#C6C6C6"/>
<path d="M316.227 197.722H303.543C303.392 197.722 303.247 197.662 303.14 197.556C303.034 197.45 302.974 197.305 302.974 197.155C302.974 197.004 303.034 196.86 303.14 196.753C303.247 196.647 303.392 196.587 303.543 196.587H316.25C316.4 196.59 316.543 196.651 316.649 196.756C316.756 196.862 316.817 197.005 316.819 197.155C316.819 197.231 316.804 197.307 316.774 197.377C316.744 197.448 316.7 197.511 316.645 197.564C316.589 197.617 316.524 197.659 316.452 197.686C316.38 197.713 316.304 197.725 316.227 197.722Z" fill="#C6C6C6"/>
<path d="M322.068 216.751H306.856C305.821 216.748 304.83 216.336 304.098 215.607C303.366 214.877 302.954 213.888 302.951 212.856V210.37C302.954 209.338 303.366 208.349 304.098 207.619C304.83 206.89 305.821 206.479 306.856 206.476H322.068C323.103 206.479 324.095 206.89 324.827 207.619C325.559 208.349 325.971 209.338 325.974 210.37V212.822C325.977 213.336 325.878 213.845 325.683 214.321C325.489 214.797 325.202 215.23 324.839 215.595C324.476 215.959 324.045 216.249 323.569 216.448C323.094 216.646 322.584 216.749 322.068 216.751ZM306.856 207.668C306.122 207.668 305.419 207.958 304.9 208.476C304.381 208.993 304.089 209.695 304.089 210.427V212.879C304.089 213.611 304.381 214.312 304.9 214.83C305.419 215.347 306.122 215.638 306.856 215.638H322.068C322.802 215.638 323.506 215.347 324.025 214.83C324.544 214.312 324.835 213.611 324.835 212.879V210.37C324.835 209.638 324.544 208.936 324.025 208.419C323.506 207.902 322.802 207.611 322.068 207.611L306.856 207.668Z" fill="#C6C6C6"/>
<path d="M25.3179 83.5619C23.5726 83.5619 21.8665 83.0458 20.4153 82.079C18.9641 81.1121 17.8331 79.7379 17.1652 78.1301C16.4973 76.5223 16.3225 74.7531 16.663 73.0463C17.0035 71.3394 17.844 69.7716 19.0781 68.541C20.3122 67.3105 21.8846 66.4725 23.5963 66.1329C25.3081 65.7934 27.0824 65.9677 28.6948 66.6337C30.3073 67.2996 31.6855 68.4274 32.6551 69.8744C33.6247 71.3214 34.1423 73.0226 34.1423 74.7629C34.1393 77.0956 33.2086 79.3319 31.5543 80.9814C29.9001 82.6309 27.6573 83.5588 25.3179 83.5619ZM25.3179 67.0992C23.7978 67.0992 22.3118 67.5487 21.0479 68.3908C19.784 69.2329 18.7989 70.4298 18.2171 71.8301C17.6354 73.2305 17.4832 74.7714 17.7798 76.258C18.0763 77.7446 18.8083 79.1101 19.8832 80.1819C20.9581 81.2537 22.3276 81.9835 23.8185 82.2792C25.3094 82.5749 26.8547 82.4232 28.2591 81.8431C29.6635 81.2631 30.8638 80.2808 31.7084 79.0205C32.5529 77.7603 33.0037 76.2786 33.0037 74.7629C33.0006 72.7313 32.1899 70.7837 30.7492 69.3472C29.3085 67.9106 27.3554 67.1022 25.3179 67.0992Z" fill="#C6C6C6"/>
<path d="M25.3178 77.6697C25.237 77.659 25.1592 77.6324 25.0888 77.5915C25.0185 77.5506 24.957 77.4961 24.9079 77.4313L21.5945 72.8899C21.5504 72.8295 21.5186 72.761 21.501 72.6884C21.4835 72.6158 21.4804 72.5404 21.492 72.4666C21.5037 72.3928 21.5297 72.322 21.5688 72.2583C21.6079 72.1945 21.6592 72.1391 21.7197 72.0951C21.7803 72.0511 21.8489 72.0195 21.9218 72.0019C21.9946 71.9844 22.0702 71.9814 22.1442 71.993C22.2182 72.0045 22.2892 72.0306 22.3531 72.0695C22.417 72.1085 22.4727 72.1596 22.5168 72.22L25.4431 76.2051L37.0116 64.8515C37.0635 64.7987 37.1255 64.7567 37.1939 64.728C37.2624 64.6993 37.3359 64.6846 37.4101 64.6846C37.4843 64.6846 37.5578 64.6993 37.6262 64.728C37.6947 64.7567 37.7567 64.7987 37.8086 64.8515C37.862 64.9043 37.9043 64.9671 37.9332 65.0363C37.9621 65.1055 37.977 65.1797 37.977 65.2546C37.977 65.3295 37.9621 65.4037 37.9332 65.4729C37.9043 65.5421 37.862 65.6049 37.8086 65.6576L25.7163 77.5334C25.6626 77.5819 25.5996 77.6189 25.5311 77.6423C25.4626 77.6657 25.39 77.6751 25.3178 77.6697Z" fill="#32323B"/>
</svg>
